<svg version="1.2" xmlns="http://www.w3.org/2000/svg" viewBox="0 0 200 200" width="200" height="200">
	<title>greenwebsite-animated</title>
	<style>
		.s0 { fill: #e1f222 } 
		.s1 { fill: #69dd30 } 
		.s0{transform-origin:center;animation:dorotate 15s linear infinite;opacity:.5}
		@keyframes dorotate{
		 from{
        -webkit-transform: rotate(0deg);
		transform: rotate(0deg);
    }
    to{
        -webkit-transform: rotate(360deg);
		transform: rotate(360deg);
    }
}
	</style>
	<path id="sun" fill-rule="evenodd" class="s0" d="m132.8 101v-1h53.2v1zm-0.2-4l53-4.6 0.1 1-53 4.6zm-0.4-3l52.3-9.2 0.2 1-52.3 9.2zm-0.7-2.9l51.3-13.7 0.3 0.9-51.4 13.8zm-0.9-2.9l49.9-18.1 0.4 0.9-50 18.2zm-1.2-2.8l48.2-22.4 0.5 0.9-48.2 22.4zm-1.5-2.6l46.1-26.6 0.5 0.9-46.1 26.6zm-1.6-2.5l43.6-30.5 0.5 0.8-43.5 30.5zm-1.9-2.4l40.7-34.1 0.7 0.7-40.7 34.2zm-2.1-2.2l37.6-37.6 0.7 0.7-37.6 37.6zm-2.2-1.9l34.2-40.8 0.7 0.7-34.2 40.7zm-2.4-1.8l30.5-43.5 0.9 0.5-30.5 43.6zm-2.6-1.6l26.6-46 0.9 0.5-26.6 46zm-2.7-1.3l22.5-48.2 0.9 0.4-22.5 48.2zm-2.8-1.1l18.2-50 1 0.4-18.2 49.9zm-2.9-0.8l13.8-51.4 0.9 0.3-13.7 51.3zm-3-0.6l9.3-52.3 1 0.1-9.3 52.4zm-2.9-0.3l4.6-53 1 0.1-4.6 52.9zm5.6 121.4l-1 0.1-4.7-53 1-0.1zm-8.6-52.8h1v53.2h-1zm0-121.8h1v53.2h-1zm-7.6 174.6l4.6-53 1 0.1-4.6 53zm0-174.3l1-0.1 4.6 53-1 0.1zm1.7 53.4l-9.2-52.4 1-0.1 9.2 52.3zm-2.9 0.7l-13.8-51.3 1-0.3 13.7 51.4zm-2.8 0.9l-18.2-50 1-0.3 18.1 50zm-2.7 1.1l-22.5-48.1 0.9-0.5 22.5 48.2zm-2.6 1.4l-26.6-46 0.8-0.5 26.6 46zm-2.5 1.7l-30.5-43.6 0.9-0.5 30.5 43.5zm-2.4 1.9l-34.2-40.8 0.8-0.6 34.2 40.7zm-2.2 2.1l-37.6-37.6 0.7-0.7 37.6 37.6zm-2 2.2l-40.7-34.2 0.6-0.7 40.8 34.1zm-1.8 2.4l-43.6-30.5 0.6-0.8 43.5 30.5zm-1.5 2.6l-46.1-26.6 0.5-0.9 46.1 26.6zm-1.4 2.7l-48.2-22.5 0.5-0.9 48.2 22.5zm-1.2 2.7l-49.9-18.1 0.3-1 50 18.2zm-0.9 2.9l-51.3-13.8 0.2-1 51.4 13.8zm-0.6 2.9l-52.4-9.2 0.2-1 52.4 9.3zm-0.4 2.9l-53-4.6 0.1-1 53 4.6zm-0.1 3h-53.2v-1h53.2zm0.2 3l-53 4.6-0.1-1 53-4.6zm0.4 3l-52.3 9.2-0.2-1 52.4-9.2zm0.7 2.9l-51.4 13.8-0.3-1 51.4-13.8zm0.9 2.9l-49.9 18.2-0.4-1 50-18.2zm1.2 2.8l-48.2 22.5-0.4-1 48.2-22.4zm1.4 2.6l-46.1 26.6-0.5-0.9 46.1-26.6zm1.6 2.5l-43.5 30.5-0.6-0.8 43.5-30.5zm1.9 2.4l-40.7 34.2-0.7-0.8 40.8-34.2zm2 2.2l-37.6 37.6-0.7-0.7 37.6-37.6zm2.2 2l-34.1 40.7-0.8-0.6 34.2-40.8zm2.4 1.8l-30.5 43.6-0.8-0.6 30.5-43.6zm2.5 1.6l-26.6 46.1-0.8-0.5 26.5-46.1zm2.7 1.3l-22.5 48.2-0.9-0.4 22.5-48.2zm2.8 1.1l-18.2 50-0.9-0.3 18.1-50zm2.9 0.8l-13.7 51.4-1-0.3 13.7-51.3zm3 0.6l-9.3 52.4-0.9-0.2 9.2-52.4zm11.9-0.2l9.2 52.4-0.9 0.2-9.3-52.4zm2.9-0.7l13.8 51.4-1 0.2-13.7-51.3zm2.8-1l18.2 50-0.9 0.4-18.2-50zm2.7-1.2l22.5 48.2-0.9 0.4-22.5-48.2zm2.6-1.4l26.6 46.1-0.8 0.5-26.6-46.1zm2.5-1.6l30.5 43.5-0.8 0.6-30.5-43.6zm2.3-1.8l34.2 40.7-0.8 0.7-34.2-40.8zm2.2-2l37.6 37.6-0.7 0.7-37.6-37.6zm2-2.3l40.7 34.2-0.6 0.8-40.7-34.2zm1.7-2.4l43.6 30.5-0.6 0.8-43.5-30.5zm1.5-2.5l46.1 26.6-0.5 0.8-46.1-26.6zm1.4-2.6l48.2 22.4-0.4 0.9-48.2-22.4zm1.1-2.8l49.9 18.2-0.3 0.9-50-18.2zm0.9-2.8l51.3 13.7-0.2 1-51.4-13.8zm0.6-2.9l52.4 9.2-0.2 1-52.3-9.2zm0.3-3l53 4.6-0.1 1-53-4.6z"/>
	<path id="leaf" fill-rule="evenodd" class="s1" d="m61 125c0 0-26.4-29.6-5-55 21.4-25.4 85.6-27.4 105-36 15.9-7.1 25-17 25-17 0 0 0.3 119.6-57 125-26.7 2.5-58-7-58-7 0 0 7.7-17.5 31.8-39.7 26.7-24.7 42-35 53.2-42.3 24.9-16.2-70.5 32.5-83 67-16.8 46.5-16 34.3-17 52-0.6 10.4-23 11-23 11 0 0 28-26.2 28-58z"/>
</svg>